<?xml version="1.0" standalone="no"?>
<!DOCTYPE svg PUBLIC "-//W3C//DTD SVG 20010904//EN"
 "http://www.w3.org/TR/2001/REC-SVG-20010904/DTD/svg10.dtd">
<svg version="1.0" xmlns="http://www.w3.org/2000/svg"
 width="266.000000pt" height="190.000000pt" viewBox="0 0 266.000000 190.000000"
 preserveAspectRatio="xMidYMid meet">
<metadata>
Created by potrace 1.16, written by Peter Selinger 2001-2019
</metadata>
<g transform="translate(0.000000,190.000000) scale(0.100000,-0.100000)"
fill="#FFFFFF" stroke="none">
<path d="M636 1818 c-9 -5 -16 -6 -16 -3 0 13 -76 -38 -98 -65 -39 -50 -46
-136 -17 -215 4 -11 134 -147 289 -302 l281 -283 -288 -288 c-158 -158 -287
-292 -288 -297 0 -6 -3 -19 -6 -30 -12 -47 -14 -108 -4 -118 6 -6 11 -19 11
-28 0 -28 78 -98 119 -106 62 -11 87 -8 151 20 14 6 151 136 305 289 l280 278
275 -275 c151 -152 289 -282 305 -289 70 -32 92 -35 156 -23 41 8 119 78 119
106 0 9 5 22 11 28 10 10 8 71 -4 118 -3 11 -6 24 -6 30 -1 5 -130 139 -288
297 l-288 288 281 283 c155 155 285 291 289 302 40 108 14 210 -68 259 -40 25
-118 39 -142 27 -5 -3 -18 -7 -29 -8 -32 -5 -64 -35 -341 -312 l-270 -271
-290 290 c-161 160 -299 291 -308 291 -18 2 -36 5 -39 9 -9 6 -69 5 -82 -2z"/>
</g>
</svg>
