<?xml version="1.0" standalone="no"?>
<!DOCTYPE svg PUBLIC "-//W3C//DTD SVG 20010904//EN"
 "http://www.w3.org/TR/2001/REC-SVG-20010904/DTD/svg10.dtd">
<svg version="1.0" xmlns="http://www.w3.org/2000/svg"
 width="700.000000pt" height="700.000000pt" viewBox="0 0 700.000000 700.000000"
 preserveAspectRatio="xMidYMid meet">
<metadata>
Created by potrace 1.16, written by Peter Selinger 2001-2019
</metadata>
<g transform="translate(0.000000,700.000000) scale(0.100000,-0.100000)"
fill="#3f796c" stroke="none">
<path d="M2565 5103 c-16 -2 -64 -13 -106 -23 -301 -74 -545 -258 -699 -525
-145 -255 -175 -585 -78 -885 59 -183 148 -327 323 -519 378 -416 651 -670
998 -927 154 -115 480 -334 496 -334 16 0 348 225 507 343 223 166 529 431
679 589 79 82 330 353 374 402 285 322 386 775 257 1153 -91 268 -287 491
-545 619 -397 197 -896 131 -1218 -160 l-53 -48 -51 46 c-145 130 -344 226
-543 261 -81 14 -266 18 -341 8z"/>
</g>
</svg>
