<?xml version="1.0" standalone="no"?>
<!DOCTYPE svg PUBLIC "-//W3C//DTD SVG 20010904//EN"
 "http://www.w3.org/TR/2001/REC-SVG-20010904/DTD/svg10.dtd">
<svg version="1.0" xmlns="http://www.w3.org/2000/svg"
 width="600.000000pt" height="600.000000pt" viewBox="0 0 600.000000 600.000000"
 preserveAspectRatio="xMidYMid meet">
<metadata>
Created by potrace 1.16, written by Peter Selinger 2001-2019
</metadata>
<g transform="translate(0.000000,600.000000) scale(0.100000,-0.100000)"
fill="#3f796c" stroke="none">
<path d="M2075 4420 c-300 -41 -538 -211 -670 -478 -53 -107 -76 -201 -82
-332 -6 -136 9 -235 57 -357 64 -168 78 -183 839 -946 388 -389 721 -714 739
-723 69 -33 45 -54 813 715 699 699 761 767 822 888 76 150 106 376 73 544
-56 276 -237 504 -491 620 -220 99 -495 97 -712 -6 -114 -53 -157 -87 -315
-244 l-148 -146 -147 146 c-159 157 -202 191 -316 244 -134 64 -322 94 -462
75z m302 -235 c120 -38 189 -88 394 -291 248 -246 210 -246 458 0 205 202 273
253 395 293 104 34 276 38 370 9 232 -70 402 -244 461 -471 19 -76 19 -233 0
-310 -8 -33 -34 -98 -56 -145 l-41 -85 -679 -680 -679 -680 -679 680 c-679
680 -679 680 -720 765 -60 124 -74 191 -69 324 8 183 63 310 190 437 93 92
233 163 363 183 69 10 213 -4 292 -29z"/>
</g>
</svg>
